<?xml version="1.0" encoding="UTF-8"?>
<!DOCTYPE svg PUBLIC "-//W3C//DTD SVG 1.1//EN" "http://www.w3.org/Graphics/SVG/1.1/DTD/svg11.dtd">
<!-- Creator: CorelDRAW 2019 (64-Bit) -->
<svg xmlns="http://www.w3.org/2000/svg" xml:space="preserve" width="101px" height="101px" version="1.1" style="shape-rendering:geometricPrecision; text-rendering:geometricPrecision; image-rendering:optimizeQuality; fill-rule:evenodd; clip-rule:evenodd"
viewBox="0 0 101 101"
 xmlns:xlink="http://www.w3.org/1999/xlink">
 <defs>
  <style type="text/css">
   <![CDATA[
    .fil1 {fill:black}
    .fil0 {fill:#FEF19F}
   ]]>
  </style>
 </defs>
 <g id="Слой_x0020_1">
  <metadata id="CorelCorpID_0Corel-Layer"/>
  <g id="_1846798837280">
   <path class="fil0" d="M64.03 71.76c-1.55,-0.19 -3.27,-0.19 -4.86,-0.28 -2.58,-0.15 -1.78,-0.32 -2.75,1.81 -1.56,3.39 -5.09,1.65 -3.51,-1.75 2.09,-4.53 3.97,-9.09 6.02,-13.7 0.53,-1.19 1.33,-2.39 3.12,-1.87 1.23,0.35 1.52,1.61 1.95,2.96 0.65,2.06 4.81,14.2 4.56,15.34 -0.27,1.26 -1.97,1.93 -3.12,0.99 -0.73,-0.59 -1.11,-2.34 -1.41,-3.5zm-25.34 -5.54c-0.1,3.04 0.41,9.41 -3.19,7.73 -1.42,-0.67 -0.97,-2.79 -0.88,-4.54 0.09,-1.7 0.17,-3.39 0.26,-5.07 0.09,-1.77 0.18,-3.52 0.27,-5.29 0.08,-1.63 -0.11,-3.56 1.25,-4.23 1.64,-0.8 2.8,0.56 2.77,2.28 -0.02,1.44 -0.38,3.88 -0.18,5.18l6.84 0.25c0.07,-1.69 0.08,-3.78 0.27,-5.42 0.19,-1.61 1.72,-2.59 3.09,-1.55 1.16,0.88 0.76,2.86 0.68,4.47 -0.09,1.77 -0.18,3.51 -0.27,5.29 -0.09,1.75 -0.18,3.55 -0.27,5.31 -0.09,1.71 0.06,3.6 -1.55,4 -3.86,0.95 -2.02,-5.79 -2.23,-8.11l-6.86 -0.3zm34.03 -12.46c2.43,-0.92 3.57,2.9 1.19,3.63 -2.41,0.75 -3.71,-2.68 -1.19,-3.63zm-22.95 -10.72c-0.23,1.14 -0.21,2.71 -0.94,3.52 -0.86,0.96 -2.57,0.73 -3.1,-0.22 -0.66,-1.18 0.51,-6.02 0.78,-7.57 0.28,-1.57 1.45,-10.31 2.24,-11.24 0.66,-0.78 2.17,-1.06 3.18,-0.28 0.76,0.59 5.86,9.2 6.92,10.85 1.32,2.06 3.15,4.25 2.35,5.79 -0.98,1.89 -3.54,0.91 -4.67,-2.3 -1.49,0.18 -5.77,0.81 -6.76,1.45zm24.92 -10.15c1.72,-0.9 2.9,0.38 2.8,2.12 -0.09,1.47 -0.37,3.19 -0.55,4.71 -0.18,1.57 -0.36,3.16 -0.54,4.72 -0.16,1.4 -0.01,3.34 -1.23,4.04 -1.61,0.93 -3.02,-0.33 -2.93,-2.11l1.37 -11.92c0.21,-1.16 0.36,-1.17 1.08,-1.56zm-36.4 13.06c-0.31,-1.63 -0.69,-3.26 -0.94,-4.91l-6.72 1.42c0.03,1.36 0.66,3.73 0.95,5.13 0.37,1.83 -0.41,3.79 -2.57,2.98 -1.28,-0.48 -1.33,-2.48 -1.67,-4.19l-1.98 -9.93c-0.33,-1.69 -1.14,-3.55 0.23,-4.54 0.69,-0.5 1.56,-0.57 2.24,-0.1 1.5,1.03 1.03,5.15 2.06,6.73l6.64 -1.31c-0.2,-1.7 -0.73,-3.43 -1,-5.13 -0.33,-2.03 1.19,-3.44 2.84,-2.44 1.09,0.66 1.21,2.71 1.53,4.33l2 9.95c0.31,1.59 0.94,3.67 -0.46,4.42 -2.13,1.13 -2.85,-0.86 -3.15,-2.41zm4.09 -35.28c-1.14,1.29 -3.32,9.44 -4.87,10.12 -1.49,0.65 -5.66,-2.17 -7.67,-3.29 -0.95,-0.53 -1.98,-1.3 -2.61,-1.08 -2.05,14.66 1.29,11.8 -12.64,10.12 0.27,2.07 2.47,10.13 1.86,11.46 -0.62,1.37 -3.27,1.59 -4.81,2.03 -1.82,0.52 -3.54,0.99 -5.34,1.5 0.83,1.75 6.09,8 6.17,9.34 0.08,1.26 -0.85,1.78 -1.44,2.42l-5.69 6.11c1.77,1.15 8.7,3.54 9.47,4.58 1.01,1.34 -1.48,8.41 -1.97,11.61 2,-0.19 3.91,-0.47 5.89,-0.72 1.8,-0.22 4.24,-1.01 5.16,0.53 0.42,0.7 1.9,9.43 2.08,10.88l7.1 -4.31c3.43,-2.14 3.39,-0.11 5.79,4.05 0.95,1.63 1.83,3.43 2.75,5.03 1.02,-0.96 3.99,-4.84 5.28,-6.39 0.63,-0.76 0.94,-1.77 2.33,-1.77 2.03,-0.01 6.46,6.43 8.4,7.49 1.37,-1.76 3.32,-9.53 4.97,-10.15 1.38,-0.52 4.08,1.4 5.23,2.03 0.86,0.47 4.26,2.49 4.94,2.54 0.22,-2.08 0.76,-10.15 1.74,-11.2 1.08,-1.17 3.56,-0.29 5.14,-0.02 1.86,0.31 3.91,0.73 5.79,0.94 -0.3,-2.02 -2.43,-10.15 -1.92,-11.44 0.5,-1.27 3.27,-1.61 4.8,-2.03l5.32 -1.6c-0.93,-1.68 -6.08,-8.12 -6.11,-9.38 -0.03,-1.34 3.51,-4.45 5.19,-6.31l1.88 -2.08c-1.65,-1.28 -8.58,-3.45 -9.45,-4.68 -0.89,-1.28 1.54,-8.64 2.03,-11.53 -1.92,0.19 -3.87,0.46 -5.77,0.7 -7.5,0.95 -4.69,0.45 -7.43,-11.39l-7.07 4.34c-0.77,0.51 -1.68,1.21 -2.79,0.64 -0.91,-0.46 -5.02,-8.36 -5.66,-9.75 -2.07,1.43 -5.57,8.1 -7.67,8.16 -1.48,0.04 -2.39,-1.92 -4.4,-3.54 -1.41,-1.13 -2.61,-2.79 -4,-3.96z"/>
   <path class="fil1" d="M42.38 10.67c1.39,1.17 2.59,2.83 4,3.96 2.01,1.62 2.92,3.58 4.4,3.54 2.1,-0.06 5.6,-6.73 7.67,-8.16 0.64,1.39 4.75,9.29 5.66,9.75 1.11,0.57 2.02,-0.13 2.79,-0.64l7.07 -4.34c2.74,11.84 -0.07,12.34 7.43,11.39 1.9,-0.24 3.85,-0.51 5.77,-0.7 -0.49,2.89 -2.92,10.25 -2.03,11.53 0.87,1.23 7.8,3.4 9.45,4.68l-1.88 2.08c-1.68,1.86 -5.22,4.97 -5.19,6.31 0.03,1.26 5.18,7.7 6.11,9.38l-5.32 1.6c-1.53,0.42 -4.3,0.76 -4.8,2.03 -0.51,1.29 1.62,9.42 1.92,11.44 -1.88,-0.21 -3.93,-0.63 -5.79,-0.94 -1.58,-0.27 -4.06,-1.15 -5.14,0.02 -0.98,1.05 -1.52,9.12 -1.74,11.2 -0.68,-0.05 -4.08,-2.07 -4.94,-2.54 -1.15,-0.63 -3.85,-2.55 -5.23,-2.03 -1.65,0.62 -3.6,8.39 -4.97,10.15 -1.94,-1.06 -6.37,-7.5 -8.4,-7.49 -1.39,0 -1.7,1.01 -2.33,1.77 -1.29,1.55 -4.26,5.43 -5.28,6.39 -0.92,-1.6 -1.8,-3.4 -2.75,-5.03 -2.4,-4.16 -2.36,-6.19 -5.79,-4.05l-7.1 4.31c-0.18,-1.45 -1.66,-10.18 -2.08,-10.88 -0.92,-1.54 -3.36,-0.75 -5.16,-0.53 -1.98,0.25 -3.89,0.53 -5.89,0.72 0.49,-3.2 2.98,-10.27 1.97,-11.61 -0.77,-1.04 -7.7,-3.43 -9.47,-4.58l5.69 -6.11c0.59,-0.64 1.52,-1.16 1.44,-2.42 -0.08,-1.34 -5.34,-7.59 -6.17,-9.34 1.8,-0.51 3.52,-0.98 5.34,-1.5 1.54,-0.44 4.19,-0.66 4.81,-2.03 0.61,-1.33 -1.59,-9.39 -1.86,-11.46 13.93,1.68 10.59,4.54 12.64,-10.12 0.63,-0.22 1.66,0.55 2.61,1.08 2.01,1.12 6.18,3.94 7.67,3.29 1.55,-0.68 3.73,-8.83 4.87,-10.12zm57.62 29.95l0 0.48c-0.24,1.8 -3.08,3.8 -3.82,4.76 -1.22,1.58 -3.1,2.72 -3.99,4.41l3.48 5.11c0.63,0.84 1.21,1.68 1.79,2.51 0.89,1.25 2.34,2.81 0.93,4.24 -0.68,0.69 -9.64,2.93 -10.69,3.18l0.92 4.93c0.35,1.71 0.68,3.22 1.01,4.85 0.35,1.7 0.73,3.33 -1.24,3.82 -0.66,0.16 -4.11,-0.53 -4.85,-0.65 -1.77,-0.3 -3.33,-0.58 -5.05,-0.87 -1.32,-0.21 -0.85,0.02 -1.04,1.5 -1.46,11.64 -0.12,13.6 -8.27,8.65 -0.47,-0.29 -0.78,-0.41 -1.27,-0.68l-3.65 -2.02 -2.47 6.12c-1.17,2.6 -1.5,5.01 -3.59,5.01 -1.57,0 -6.59,-6.53 -8.79,-8l-3.73 4.46c-0.64,0.8 -1.16,1.45 -1.82,2.29 -0.83,1.05 -1.25,1.84 -2.26,1.84 -1.93,0 -2.16,-1.04 -3.45,-3.58l-2.34 -4.3c-0.48,-0.95 -1.19,-1.82 -1.43,-2.86l-7.12 4.41c-1.87,1.23 -4.05,2.5 -4.75,-0.94l-1.9 -10.41c-0.36,-0.54 -0.11,-0.24 -0.72,-0.18 -1.86,0.17 -9.09,1.33 -9.89,1.22 -2.85,-0.41 -1.43,-3.76 -1.09,-5.12 0.25,-1.02 0.42,-1.91 0.66,-2.85 0.46,-1.85 0.94,-3.82 1.37,-5.66l-5.95 -2.66c-1.09,-0.45 -1.89,-0.82 -2.97,-1.32 -0.93,-0.42 -2.02,-0.84 -2.02,-2.08 0,-1.55 0.73,-1.81 1.81,-2.88l6 -6.49c-0.19,-0.71 -4.59,-6.75 -5.39,-7.9 -0.89,-1.28 -2.26,-2.52 -0.72,-4.08 0.59,-0.6 9.45,-2.97 10.6,-3.06 -0.02,-1.18 -1.88,-9.23 -2.21,-11.28 -0.74,-4.73 7.72,-0.83 12.37,-0.83 0,-2.3 0.51,-5.06 0.77,-7.25 0.72,-6.23 0.8,-6.75 6.52,-3.56l3.52 1.95c0.84,0.48 1.48,1.01 2.47,1.24l2.51 -6.08c0.98,-2.38 1.56,-5.03 3.52,-4.94 1.43,0.06 3.07,2.45 4.57,3.94 1.04,1.04 3.21,3.46 4.25,4.15 0.41,-0.3 1.56,-1.85 1.95,-2.34 6.25,-8 6.37,-8.76 10.02,-1.43 0.61,1.2 2.86,4.94 3.07,5.72l2.61 -1.48c0.88,-0.58 1.62,-1.05 2.53,-1.58 3.02,-1.79 5.85,-4.75 6.79,0.11 0.3,1.55 1.74,9.11 1.74,10.18 2.97,0 7.96,-1.17 10.94,-1.17 0.45,0 1.56,1.12 1.56,1.76l-2.74 11.91c1,0.23 4.85,2.05 5.99,2.61 0.57,0.27 0.94,0.37 1.5,0.64 0.61,0.3 0.83,0.43 1.47,0.68 1.31,0.52 1.88,1.16 1.98,1.85z"/>
   <path class="fil1" d="M38.69 66.22l6.86 0.3c0.21,2.32 -1.63,9.06 2.23,8.11 1.61,-0.4 1.46,-2.29 1.55,-4 0.09,-1.76 0.18,-3.56 0.27,-5.31 0.09,-1.78 0.18,-3.52 0.27,-5.29 0.08,-1.61 0.48,-3.59 -0.68,-4.47 -1.37,-1.04 -2.9,-0.06 -3.09,1.55 -0.19,1.64 -0.2,3.73 -0.27,5.42l-6.84 -0.25c-0.2,-1.3 0.16,-3.74 0.18,-5.18 0.03,-1.72 -1.13,-3.08 -2.77,-2.28 -1.36,0.67 -1.17,2.6 -1.25,4.23 -0.09,1.77 -0.18,3.52 -0.27,5.29 -0.09,1.68 -0.17,3.37 -0.26,5.07 -0.09,1.75 -0.54,3.87 0.88,4.54 3.6,1.68 3.09,-4.69 3.19,-7.73z"/>
   <path class="fil1" d="M36.53 37.23l-6.64 1.31c-1.03,-1.58 -0.56,-5.7 -2.06,-6.73 -0.68,-0.47 -1.55,-0.4 -2.24,0.1 -1.37,0.99 -0.56,2.85 -0.23,4.54l1.98 9.93c0.34,1.71 0.39,3.71 1.67,4.19 2.16,0.81 2.94,-1.15 2.57,-2.98 -0.29,-1.4 -0.92,-3.77 -0.95,-5.13l6.72 -1.42c0.25,1.65 0.63,3.28 0.94,4.91 0.3,1.55 1.02,3.54 3.15,2.41 1.4,-0.75 0.77,-2.83 0.46,-4.42l-2 -9.95c-0.32,-1.62 -0.44,-3.67 -1.53,-4.33 -1.65,-1 -3.17,0.41 -2.84,2.44 0.27,1.7 0.8,3.43 1,5.13z"/>
   <path class="fil1" d="M51.44 33.61l2.63 4.42 -3.58 0.69 0.95 -5.11zm-1.67 9.43c0.99,-0.64 5.27,-1.27 6.76,-1.45 1.13,3.21 3.69,4.19 4.67,2.3 0.8,-1.54 -1.03,-3.73 -2.35,-5.79 -1.06,-1.65 -6.16,-10.26 -6.92,-10.85 -1.01,-0.78 -2.52,-0.5 -3.18,0.28 -0.79,0.93 -1.96,9.67 -2.24,11.24 -0.27,1.55 -1.44,6.39 -0.78,7.57 0.53,0.95 2.24,1.18 3.1,0.22 0.73,-0.81 0.71,-2.38 0.94,-3.52z"/>
   <path class="fil1" d="M59.07 67.56c0.01,-0.63 1.63,-4.16 2.06,-4.76l1.52 4.92 -3.58 -0.16zm4.96 4.2c0.3,1.16 0.68,2.91 1.41,3.5 1.15,0.94 2.85,0.27 3.12,-0.99 0.25,-1.14 -3.91,-13.28 -4.56,-15.34 -0.43,-1.35 -0.72,-2.61 -1.95,-2.96 -1.79,-0.52 -2.59,0.68 -3.12,1.87 -2.05,4.61 -3.93,9.17 -6.02,13.7 -1.58,3.4 1.95,5.14 3.51,1.75 0.97,-2.13 0.17,-1.96 2.75,-1.81 1.59,0.09 3.31,0.09 4.86,0.28z"/>
   <path class="fil1" d="M74.69 32.89c-0.72,0.39 -0.87,0.4 -1.08,1.56l-1.37 11.92c-0.09,1.78 1.32,3.04 2.93,2.11 1.22,-0.7 1.07,-2.64 1.23,-4.04 0.18,-1.56 0.36,-3.15 0.54,-4.72 0.18,-1.52 0.46,-3.24 0.55,-4.71 0.1,-1.74 -1.08,-3.02 -2.8,-2.12z"/>
   <path class="fil1" d="M11.52 10.43c2.85,0 2.82,-4.11 0,-4.11 -2.44,0 -2.44,4.11 0,4.11z"/>
   <path class="fil1" d="M12.89 95.58c0,2.8 4.1,2.72 4.1,0.2 0,-0.57 -0.21,-1.1 -0.52,-1.43 -1.5,-1.57 -3.58,-0.13 -3.58,1.23z"/>
   <path class="fil1" d="M8.98 86.79c0,2.85 4.11,2.85 4.11,0 0,-2.36 -4.11,-2.36 -4.11,0z"/>
   <path class="fil1" d="M90.82 85.04c0,2.43 4.1,2.79 4.1,-0.2 0,-2.41 -4.1,-2.38 -4.1,0.2z"/>
   <path class="fil1" d="M91.6 13.55c0,1.2 0.3,2.54 1.96,2.54 2.43,0 2.79,-4.1 -0.2,-4.1 -0.7,0 -1.76,0.89 -1.76,1.56z"/>
   <path class="fil1" d="M84.38 6.32c0,3.04 3.9,2.32 3.9,0.59 0,-1.09 -0.24,-2.54 -1.76,-2.54 -1.12,0 -2.14,0.84 -2.14,1.95z"/>
   <path class="fil1" d="M77.34 94.22c0,3.3 3.91,3.01 3.91,0.19 0,-2.65 -3.91,-1.92 -3.91,-0.19z"/>
   <path class="fil1" d="M72.72 53.76c-2.52,0.95 -1.22,4.38 1.19,3.63 2.38,-0.73 1.24,-4.55 -1.19,-3.63z"/>
   <path class="fil0" d="M59.07 67.56l3.58 0.16 -1.52 -4.92c-0.43,0.6 -2.05,4.13 -2.06,4.76z"/>
   <polygon class="fil0" points="50.49,38.72 54.07,38.03 51.44,33.61 "/>
  </g>
 </g>
</svg>
